<svg width="412" height="412.99999999999994" xmlns="http://www.w3.org/2000/svg" data-name="Layer 1">
 <g>
  <title>Layer 1</title>
  <path d="m205.60553,410.27301c-113.03736,0 -205,-91.9624 -205,-205s91.96264,-205 205,-205s205,91.9624 205,205s-91.96265,205 -205,205zm0,-408c-111.93457,0 -203,91.06543 -203,203s91.06543,203 203,203s203,-91.06543 203,-203s-91.06543,-203 -203,-203z" fill="#3f3d56" id="svg_30"/>
  <path d="m155.63192,341.8133a180.457,180.457 0 0 1 -118.17963,-206.32266a180.42744,180.42744 0 1 0 338.279,116.36848a180.457,180.457 0 0 1 -220.09937,89.95418z" fill="#f0f0f0" id="svg_31"/>
  <path d="m145.2276,188.9361c-10.37744,0 -18.82007,-10.98584 -18.82007,-24.48975s8.44263,-24.49023 18.82007,-24.49023s18.82006,10.98633 18.82006,24.49023s-8.44262,24.48975 -18.82006,24.48975z" fill="#3f3d56" id="svg_32"/>
  <path d="m259.2276,188.9361c-10.37744,0 -18.82007,-10.98584 -18.82007,-24.48975s8.44263,-24.49023 18.82007,-24.49023s18.82006,10.98633 18.82006,24.49023s-8.44262,24.48975 -18.82006,24.48975z" fill="#3f3d56" id="svg_33"/>
  <path d="m821,694.94444l-820,0a1,1 0 0 1 0,-2l820,0a1,1 0 0 1 0,2z" fill="#3f3d56" id="svg_50"/>
  <path d="m174.60553,285.27301a28,28 0 1 0 56,0l-56,0z" fill="#3f3d56" id="svg_51"/>
  <circle cx="305.7276" cy="226.27301" r="24" fill="#f0f0f0" id="svg_52"/>
  <circle cx="98.7276" cy="226.27301" r="24" fill="#f0f0f0" id="svg_53"/>
 </g>

</svg>